<?xml version="1.0" standalone="no"?>
<!DOCTYPE svg PUBLIC "-//W3C//DTD SVG 20010904//EN"
 "http://www.w3.org/TR/2001/REC-SVG-20010904/DTD/svg10.dtd">
<svg version="1.0" xmlns="http://www.w3.org/2000/svg"
 width="300.000000pt" height="300.000000pt" viewBox="0 0 300.000000 300.000000"
 preserveAspectRatio="xMidYMid meet">

<g transform="translate(0.000000,300.000000) scale(0.100000,-0.100000)"
fill="#000000" stroke="none">
<path d="M1933 2903 c9 -2 23 -2 30 0 6 3 -1 5 -18 5 -16 0 -22 -2 -12 -5z"/>
<path d="M1838 2893 c7 -3 16 -2 19 1 4 3 -2 6 -13 5 -11 0 -14 -3 -6 -6z"/>
<path d="M1728 2873 c7 -3 16 -2 19 1 4 3 -2 6 -13 5 -11 0 -14 -3 -6 -6z"/>
<path d="M1678 2863 c7 -3 16 -2 19 1 4 3 -2 6 -13 5 -11 0 -14 -3 -6 -6z"/>
<path d="M1608 2853 c6 -2 18 -2 25 0 6 3 1 5 -13 5 -14 0 -19 -2 -12 -5z"/>
<path d="M1548 2843 c7 -3 16 -2 19 1 4 3 -2 6 -13 5 -11 0 -14 -3 -6 -6z"/>
<path d="M1448 2823 c6 -2 18 -2 25 0 6 3 1 5 -13 5 -14 0 -19 -2 -12 -5z"/>
<path d="M1335 2802 c-33 -8 -55 -17 -50 -18 6 -2 42 5 80 15 39 11 61 19 50
19 -11 0 -47 -7 -80 -16z"/>
<path d="M1248 2773 c7 -3 16 -2 19 1 4 3 -2 6 -13 5 -11 0 -14 -3 -6 -6z"/>
<path d="M1198 2763 c7 -3 16 -2 19 1 4 3 -2 6 -13 5 -11 0 -14 -3 -6 -6z"/>
<path d="M1148 2753 c6 -2 18 -2 25 0 6 3 1 5 -13 5 -14 0 -19 -2 -12 -5z"/>
<path d="M1088 2743 c6 -2 18 -2 25 0 6 3 1 5 -13 5 -14 0 -19 -2 -12 -5z"/>
<path d="M980 2728 c-25 -6 -40 -12 -34 -15 5 -2 37 3 70 11 32 8 48 14 34 14
-14 0 -45 -5 -70 -10z"/>
<path d="M853 2692 c-29 -8 -53 -20 -53 -26 1 -14 90 -91 90 -77 0 5 -18 22
-40 38 -22 15 -40 31 -40 35 0 3 28 15 63 26 73 23 56 27 -20 4z"/>
<path d="M2295 2679 c-11 -16 -1 -19 13 -3 7 8 8 14 3 14 -5 0 -13 -5 -16 -11z"/>
<path d="M878 2559 c-10 -5 -18 -18 -18 -29 0 -10 -8 -21 -17 -24 -14 -4 -14
-4 2 -3 11 1 21 11 24 22 2 11 11 25 20 32 19 15 13 16 -11 2z"/>
<path d="M2360 2506 c0 -3 9 -10 20 -16 11 -6 20 -8 20 -6 0 3 -9 10 -20 16
-11 6 -20 8 -20 6z"/>
<path d="M658 2473 c6 -2 18 -2 25 0 6 3 1 5 -13 5 -14 0 -19 -2 -12 -5z"/>
<path d="M2464 2428 c46 -42 50 -49 39 -67 -11 -17 -10 -19 2 -15 34 13 4 61
-71 114 -11 8 3 -6 30 -32z"/>
<path d="M626 2462 c-2 -4 18 -28 45 -53 27 -25 49 -42 49 -38 0 4 -19 24 -42
45 -24 21 -42 42 -40 46 3 10 -5 10 -12 0z"/>
<path d="M2453 2250 c0 -47 2 -66 4 -42 2 23 2 61 0 85 -2 23 -4 4 -4 -43z"/>
<path d="M468 2313 c7 -3 16 -2 19 1 4 3 -2 6 -13 5 -11 0 -14 -3 -6 -6z"/>
<path d="M373 2303 c-19 -7 -16 -27 7 -48 19 -18 20 -17 20 6 0 19 -2 21 -10
9 -6 -10 -10 -11 -10 -2 0 6 -1 15 -2 20 -1 4 11 10 28 13 26 6 26 7 4 7 -14
0 -31 -2 -37 -5z"/>
<path d="M385 2170 c-3 -6 1 -7 9 -4 18 7 21 14 7 14 -6 0 -13 -4 -16 -10z"/>
<path d="M396 2133 c5 -5 12 -12 16 -18 4 -6 8 -2 8 8 0 9 -7 17 -17 17 -9 0
-12 -3 -7 -7z"/>
<path d="M2561 2083 c-1 -12 -5 -25 -11 -28 -5 -3 -9 -21 -9 -38 1 -27 2 -28
6 -7 2 14 9 35 15 47 5 11 8 27 5 35 -3 7 -6 4 -6 -9z"/>
<path d="M700 2045 c0 -14 3 -25 8 -25 4 0 7 11 7 25 0 14 -3 25 -7 25 -5 0
-8 -11 -8 -25z"/>
<path d="M1242 2000 c0 -14 2 -19 5 -12 2 6 2 18 0 25 -3 6 -5 1 -5 -13z"/>
<path d="M1471 1994 c0 -11 3 -14 6 -6 3 7 2 16 -1 19 -3 4 -6 -2 -5 -13z"/>
<path d="M408 1943 c5 -59 10 -63 11 -10 1 26 -3 47 -7 47 -4 0 -6 -17 -4 -37z"/>
<path d="M403 1863 c-18 -7 -16 -40 2 -47 8 -3 15 -1 15 3 0 5 -6 11 -12 14
-10 3 -10 7 1 20 14 18 14 19 -6 10z"/>
<path d="M461 1814 c0 -11 3 -14 6 -6 3 7 2 16 -1 19 -3 4 -6 -2 -5 -13z"/>
<path d="M1471 1814 c0 -11 3 -14 6 -6 3 7 2 16 -1 19 -3 4 -6 -2 -5 -13z"/>
<path d="M742 1790 c0 -19 2 -27 5 -17 2 9 2 25 0 35 -3 9 -5 1 -5 -18z"/>
<path d="M412 1770 c0 -14 2 -19 5 -12 2 6 2 18 0 25 -3 6 -5 1 -5 -13z"/>
<path d="M409 1644 c2 -26 -2 -51 -9 -59 -11 -13 -10 -14 4 -9 12 4 16 19 16
54 0 27 -3 51 -7 53 -5 3 -6 -15 -4 -39z"/>
<path d="M2520 1635 c0 -8 2 -15 4 -15 2 0 6 7 10 15 3 8 1 15 -4 15 -6 0 -10
-7 -10 -15z"/>
<path d="M1235 1610 c3 -5 8 -10 11 -10 2 0 4 5 4 10 0 6 -5 10 -11 10 -5 0
-7 -4 -4 -10z"/>
<path d="M1158 1603 c6 -2 18 -2 25 0 6 3 1 5 -13 5 -14 0 -19 -2 -12 -5z"/>
<path d="M843 1573 c9 -2 25 -2 35 0 9 3 1 5 -18 5 -19 0 -27 -2 -17 -5z"/>
<path d="M409 1468 c-3 -22 -1 -34 4 -29 5 5 7 21 5 37 -3 27 -4 26 -9 -8z"/>
<path d="M1003 1443 c9 -2 23 -2 30 0 6 3 -1 5 -18 5 -16 0 -22 -2 -12 -5z"/>
<path d="M2422 1430 c0 -14 2 -19 5 -12 2 6 2 18 0 25 -3 6 -5 1 -5 -13z"/>
<path d="M408 1360 c3 -31 -1 -57 -8 -66 -11 -12 -10 -13 4 -8 12 5 16 20 16
65 0 32 -3 59 -7 59 -5 0 -6 -23 -5 -50z"/>
<path d="M2512 1350 c-1 -14 5 -34 13 -44 8 -11 15 -15 15 -10 0 6 -4 14 -9
20 -5 5 -11 20 -14 34 l-4 25 -1 -25z"/>
<path d="M732 1300 c0 -14 2 -19 5 -12 2 6 2 18 0 25 -3 6 -5 1 -5 -13z"/>
<path d="M408 1205 c3 -45 1 -55 -12 -55 -23 0 -20 -27 3 -33 15 -4 21 -16 24
-48 l4 -44 1 48 c2 41 -1 49 -20 57 -18 7 -19 9 -5 9 14 1 17 11 17 61 0 33
-3 60 -7 60 -5 0 -6 -25 -5 -55z"/>
<path d="M410 1011 c0 -5 -8 -12 -17 -14 -14 -4 -12 -5 5 -6 13 -1 22 5 22 14
0 8 -2 15 -5 15 -3 0 -5 -4 -5 -9z"/>
<path d="M405 960 c3 -5 10 -10 16 -10 5 0 9 5 9 10 0 6 -7 10 -16 10 -8 0
-12 -4 -9 -10z"/>
<path d="M781 934 c0 -11 3 -14 6 -6 3 7 2 16 -1 19 -3 4 -6 -2 -5 -13z"/>
<path d="M1452 900 c0 -19 2 -27 5 -17 2 9 2 25 0 35 -3 9 -5 1 -5 -18z"/>
<path d="M2352 900 c0 -14 2 -19 5 -12 2 6 2 18 0 25 -3 6 -5 1 -5 -13z"/>
<path d="M752 865 c0 -16 2 -22 5 -12 2 9 2 23 0 30 -3 6 -5 -1 -5 -18z"/>
<path d="M396 839 c-19 -19 -19 -19 1 -41 11 -13 23 -30 26 -38 4 -12 6 -12 6
-1 1 8 -9 25 -21 38 -21 23 -21 23 -2 37 10 8 17 16 14 19 -3 2 -14 -4 -24
-14z"/>
<path d="M459 849 c-10 -6 -7 -9 14 -9 29 0 35 5 14 13 -8 3 -20 1 -28 -4z"/>
<path d="M2510 830 c0 -16 4 -30 8 -30 5 0 7 14 4 30 -2 17 -6 30 -8 30 -2 0
-4 -13 -4 -30z"/>
<path d="M2553 789 c9 -6 15 -14 12 -20 -7 -10 8 -13 18 -2 7 7 -22 32 -38 32
-5 0 -2 -4 8 -10z"/>
<path d="M2512 720 c-18 -17 -29 -30 -24 -30 5 0 21 14 37 30 37 38 30 38 -13
0z"/>
<path d="M397 697 c-10 -10 -17 -20 -15 -22 6 -6 40 24 37 32 -2 5 -12 0 -22
-10z"/>
<path d="M2490 660 c0 -5 5 -10 11 -10 5 0 7 5 4 10 -3 6 -8 10 -11 10 -2 0
-4 -4 -4 -10z"/>
<path d="M372 555 c0 -16 2 -22 5 -12 2 9 2 23 0 30 -3 6 -5 -1 -5 -18z"/>
<path d="M511 494 c0 -11 3 -14 6 -6 3 7 2 16 -1 19 -3 4 -6 -2 -5 -13z"/>
<path d="M361 484 c0 -11 3 -14 6 -6 3 7 2 16 -1 19 -3 4 -6 -2 -5 -13z"/>
<path d="M1184 476 c-3 -7 -4 -38 -2 -67 l3 -54 5 68 c5 67 4 79 -6 53z"/>
<path d="M388 463 c6 -2 18 -2 25 0 6 3 1 5 -13 5 -14 0 -19 -2 -12 -5z"/>
<path d="M485 441 c11 -4 36 -11 55 -15 24 -4 29 -3 15 3 -11 4 -36 11 -55 15
-24 4 -29 3 -15 -3z"/>
<path d="M710 426 c0 -15 -7 -26 -17 -28 -13 -3 -11 -5 7 -9 24 -5 25 -3 22
28 -5 38 -12 44 -12 9z"/>
<path d="M585 420 c-4 -6 3 -10 14 -10 25 0 27 6 6 13 -8 4 -17 2 -20 -3z"/>
<path d="M648 403 c7 -3 16 -2 19 1 4 3 -2 6 -13 5 -11 0 -14 -3 -6 -6z"/>
<path d="M2310 370 c-8 -5 -10 -10 -5 -10 6 0 17 5 25 10 8 5 11 10 5 10 -5 0
-17 -5 -25 -10z"/>
<path d="M830 360 c14 -4 34 -8 45 -8 16 0 15 2 -5 8 -14 4 -34 8 -45 8 -16 0
-15 -2 5 -8z"/>
<path d="M1154 330 c1 -16 7 -25 19 -26 11 -1 12 0 3 3 -8 2 -17 14 -19 26 -3
18 -4 18 -3 -3z"/>
<path d="M955 340 c17 -4 39 -8 50 -8 16 0 15 2 -5 8 -14 4 -36 8 -50 8 -22 0
-22 -1 5 -8z"/>
<path d="M1218 293 c6 -2 18 -2 25 0 6 3 1 5 -13 5 -14 0 -19 -2 -12 -5z"/>
<path d="M1288 283 c12 -2 30 -2 40 0 9 3 -1 5 -23 4 -22 0 -30 -2 -17 -4z"/>
<path d="M1518 273 c6 -2 18 -2 25 0 6 3 1 5 -13 5 -14 0 -19 -2 -12 -5z"/>
<path d="M1888 273 c6 -2 18 -2 25 0 6 3 1 5 -13 5 -14 0 -19 -2 -12 -5z"/>
<path d="M1700 260 c0 -5 7 -7 15 -4 8 4 15 8 15 10 0 2 -7 4 -15 4 -8 0 -15
-4 -15 -10z"/>
</g>
</svg>
