<?xml version="1.0" standalone="no"?>
<!DOCTYPE svg PUBLIC "-//W3C//DTD SVG 20010904//EN"
 "http://www.w3.org/TR/2001/REC-SVG-20010904/DTD/svg10.dtd">
<svg version="1.0" xmlns="http://www.w3.org/2000/svg"
 width="300.000000pt" height="300.000000pt" viewBox="0 0 300.000000 300.000000"
 preserveAspectRatio="xMidYMid meet">

<g transform="translate(0.000000,300.000000) scale(0.100000,-0.100000)"
fill="#000000" stroke="none">
<path d="M1122 2773 c-62 -22 -44 -28 22 -7 54 17 56 17 78 -2 l23 -19 -19 23
c-22 25 -44 27 -104 5z"/>
<path d="M975 2719 c-27 -10 -37 -17 -21 -14 31 7 97 33 81 33 -5 0 -32 -8
-60 -19z"/>
<path d="M820 2669 c-47 -17 -111 -39 -143 -50 -103 -34 -93 -7 -102 -279 -4
-132 -11 -242 -15 -245 -4 -2 -7 -78 -6 -167 1 -145 -1 -166 -18 -190 -22 -31
-18 -98 8 -127 20 -22 20 -31 2 -31 -21 0 -26 -49 -8 -89 15 -35 20 -146 8
-158 -10 -11 -7 -48 6 -61 9 -9 9 -15 0 -24 -15 -15 -16 -55 -1 -63 7 -5 9
-67 6 -197 l-4 -189 23 -16 c22 -14 24 -23 24 -87 0 -42 -5 -77 -12 -84 -9 -9
-9 -17 1 -35 8 -16 11 -59 9 -135 -2 -62 0 -112 5 -112 4 0 7 58 7 130 0 94
-3 130 -12 130 -9 0 -9 3 0 12 7 7 12 44 12 95 0 80 -1 84 -25 95 -15 7 -24
17 -21 25 3 7 6 92 7 188 1 128 -2 180 -11 191 -11 12 -10 20 0 39 11 21 11
29 1 49 -8 13 -10 30 -5 37 15 26 15 139 -1 162 -19 28 -20 87 -1 87 8 0 17 7
20 16 8 22 8 24 -8 24 -33 0 -44 124 -12 136 8 3 11 49 10 167 -1 89 3 167 8
174 5 6 12 112 15 235 3 122 9 232 13 242 5 14 48 34 160 73 141 49 178 64
154 63 -5 -1 -47 -15 -94 -31z"/>
<path d="M1350 2676 c0 -2 8 -10 18 -17 15 -13 16 -12 3 4 -13 16 -21 21 -21
13z"/>
<path d="M1440 2606 c0 -2 14 -14 30 -26 17 -12 30 -19 30 -16 0 2 -13 14 -30
26 -16 12 -30 19 -30 16z"/>
<path d="M1510 2556 c0 -2 14 -14 30 -26 17 -12 30 -19 30 -16 0 2 -13 14 -30
26 -16 12 -30 19 -30 16z"/>
<path d="M1610 2487 c0 -3 21 -22 47 -43 26 -21 44 -33 40 -27 -9 14 -87 77
-87 70z"/>
<path d="M1725 2390 c10 -11 20 -20 23 -20 3 0 -3 9 -13 20 -10 11 -20 20 -23
20 -3 0 3 -9 13 -20z"/>
<path d="M1760 2366 c0 -2 8 -10 18 -17 15 -13 16 -12 3 4 -13 16 -21 21 -21
13z"/>
<path d="M1820 2316 c0 -2 8 -10 18 -17 15 -13 16 -12 3 4 -13 16 -21 21 -21
13z"/>
<path d="M1860 2286 c0 -2 8 -10 18 -17 15 -13 16 -12 3 4 -13 16 -21 21 -21
13z"/>
<path d="M601 2264 c0 -11 3 -14 6 -6 3 7 2 16 -1 19 -3 4 -6 -2 -5 -13z"/>
<path d="M599 2193 c-1 -16 -3 -45 -5 -67 -2 -21 0 -35 4 -32 8 8 14 126 7
126 -3 0 -6 -12 -6 -27z"/>
<path d="M2090 2106 c0 -2 8 -10 18 -17 15 -13 16 -12 3 4 -13 16 -21 21 -21
13z"/>
<path d="M855 2070 c3 -5 8 -10 11 -10 2 0 4 5 4 10 0 6 -5 10 -11 10 -5 0 -7
-4 -4 -10z"/>
<path d="M916 1991 c-5 -8 84 -3 93 5 2 2 -16 4 -42 4 -25 0 -48 -4 -51 -9z"/>
<path d="M931 1928 c1 -17 3 -18 6 -6 3 12 17 18 46 21 l42 4 -47 1 c-44 2
-48 0 -47 -20z"/>
<path d="M1036 1935 c4 -8 8 -15 10 -15 2 0 4 7 4 15 0 8 -4 15 -10 15 -5 0
-7 -7 -4 -15z"/>
<path d="M1475 1940 c-3 -6 1 -7 9 -4 18 7 21 14 7 14 -6 0 -13 -4 -16 -10z"/>
<path d="M700 1930 c0 -5 5 -10 11 -10 5 0 7 5 4 10 -3 6 -8 10 -11 10 -2 0
-4 -4 -4 -10z"/>
<path d="M792 1895 c0 -16 2 -22 5 -12 2 9 2 23 0 30 -3 6 -5 -1 -5 -18z"/>
<path d="M758 1903 c7 -3 16 -2 19 1 4 3 -2 6 -13 5 -11 0 -14 -3 -6 -6z"/>
<path d="M703 1884 c-3 -8 -2 -19 3 -24 5 -5 9 1 9 16 0 28 -3 30 -12 8z"/>
<path d="M645 1880 c-3 -5 -1 -10 4 -10 6 0 11 5 11 10 0 6 -2 10 -4 10 -3 0
-8 -4 -11 -10z"/>
<path d="M2207 1859 c-4 -15 -2 -18 7 -10 7 6 17 7 22 3 4 -4 2 1 -5 11 -17
21 -18 21 -24 -4z"/>
<path d="M1446 1813 c-6 -14 -5 -15 5 -6 7 7 10 15 7 18 -3 3 -9 -2 -12 -12z"/>
<path d="M2260 1796 c0 -3 9 -10 20 -16 11 -6 20 -8 20 -6 0 3 -9 10 -20 16
-11 6 -20 8 -20 6z"/>
<path d="M1451 1774 c0 -11 3 -14 6 -6 3 7 2 16 -1 19 -3 4 -6 -2 -5 -13z"/>
<path d="M2330 1771 c-25 -7 -25 -7 -3 -13 13 -4 27 0 34 8 12 15 8 16 -31 5z"/>
<path d="M930 1719 c0 -5 5 -7 10 -4 6 3 10 8 10 11 0 2 -4 4 -10 4 -5 0 -10
-5 -10 -11z"/>
<path d="M805 1700 c-3 -5 -1 -10 4 -10 6 0 11 5 11 10 0 6 -2 10 -4 10 -3 0
-8 -4 -11 -10z"/>
<path d="M1456 1655 c-3 -8 -1 -15 4 -15 6 0 10 7 10 15 0 8 -2 15 -4 15 -2 0
-6 -7 -10 -15z"/>
<path d="M1700 1656 c0 -8 4 -17 9 -20 5 -4 7 3 4 14 -6 23 -13 26 -13 6z"/>
<path d="M645 1630 c-3 -5 -1 -10 4 -10 6 0 11 5 11 10 0 6 -2 10 -4 10 -3 0
-8 -4 -11 -10z"/>
<path d="M1642 1610 c0 -14 2 -19 5 -12 2 6 2 18 0 25 -3 6 -5 1 -5 -13z"/>
<path d="M1640 1560 c0 -5 5 -10 11 -10 5 0 7 5 4 10 -3 6 -8 10 -11 10 -2 0
-4 -4 -4 -10z"/>
<path d="M1447 1490 c6 -8 13 -31 16 -50 l4 -35 1 36 c1 24 -4 41 -15 50 -16
12 -16 12 -6 -1z"/>
<path d="M1061 1454 c0 -11 3 -14 6 -6 3 7 2 16 -1 19 -3 4 -6 -2 -5 -13z"/>
<path d="M800 1440 c0 -5 5 -10 10 -10 6 0 10 5 10 10 0 6 -4 10 -10 10 -5 0
-10 -4 -10 -10z"/>
<path d="M1175 1440 c-3 -5 -1 -10 4 -10 6 0 11 5 11 10 0 6 -2 10 -4 10 -3 0
-8 -4 -11 -10z"/>
<path d="M2200 1446 c0 -2 8 -10 18 -17 15 -13 16 -12 3 4 -13 16 -21 21 -21
13z"/>
<path d="M2460 1403 c0 -4 14 -16 30 -25 39 -22 39 -15 0 12 -16 12 -30 18
-30 13z"/>
<path d="M868 1203 c6 -2 18 -2 25 0 6 3 1 5 -13 5 -14 0 -19 -2 -12 -5z"/>
<path d="M1061 1184 c0 -11 3 -14 6 -6 3 7 2 16 -1 19 -3 4 -6 -2 -5 -13z"/>
<path d="M1472 1170 c0 -19 2 -27 5 -17 2 9 2 25 0 35 -3 9 -5 1 -5 -18z"/>
<path d="M811 1174 c0 -11 3 -14 6 -6 3 7 2 16 -1 19 -3 4 -6 -2 -5 -13z"/>
<path d="M1130 1177 c30 -7 57 -11 59 -10 10 7 -8 12 -59 17 l-55 6 55 -13z"/>
<path d="M705 1160 c-13 -5 -14 -9 -5 -9 8 0 24 4 35 9 13 5 14 9 5 9 -8 0
-24 -4 -35 -9z"/>
<path d="M655 1139 c-11 -17 1 -21 15 -4 8 9 8 15 2 15 -6 0 -14 -5 -17 -11z"/>
<path d="M1405 940 c-3 -6 1 -7 9 -4 18 7 21 14 7 14 -6 0 -13 -4 -16 -10z"/>
<path d="M2414 565 c0 -93 2 -133 3 -88 2 45 2 122 0 170 -1 48 -3 12 -3 -82z"/>
<path d="M668 623 c7 -3 16 -2 19 1 4 3 -2 6 -13 5 -11 0 -14 -3 -6 -6z"/>
<path d="M2363 333 c9 -2 23 -2 30 0 6 3 -1 5 -18 5 -16 0 -22 -2 -12 -5z"/>
<path d="M808 303 c7 -3 16 -2 19 1 4 3 -2 6 -13 5 -11 0 -14 -3 -6 -6z"/>
<path d="M1401 284 c0 -11 3 -14 6 -6 3 7 2 16 -1 19 -3 4 -6 -2 -5 -13z"/>
<path d="M1360 280 c0 -5 9 -14 20 -20 11 -6 20 -9 20 -8 0 2 -9 11 -20 21
-11 9 -20 13 -20 7z"/>
</g>
</svg>
